<?xml version="1.0" encoding="UTF-8" standalone="no"?>
<!-- Created with Inkscape (http://www.inkscape.org/) -->

<svg
   xmlns:dc="http://purl.org/dc/elements/1.1/"
   xmlns:cc="http://creativecommons.org/ns#"
   xmlns:rdf="http://www.w3.org/1999/02/22-rdf-syntax-ns#"
   xmlns:svg="http://www.w3.org/2000/svg"
   xmlns="http://www.w3.org/2000/svg"
   xmlns:xlink="http://www.w3.org/1999/xlink"
   xmlns:sodipodi="http://sodipodi.sourceforge.net/DTD/sodipodi-0.dtd"
   xmlns:inkscape="http://www.inkscape.org/namespaces/inkscape"
   sodipodi:docname="loan-analyzer.svg"
   inkscape:version="0.91 r13725"
   version="1.1"
   id="svg2"
   viewBox="0 0 192 192"
   height="192"
   width="192">
  <sodipodi:namedview
     inkscape:window-maximized="1"
     inkscape:window-y="27"
     inkscape:window-x="0"
     inkscape:window-height="704"
     inkscape:window-width="1366"
     units="px"
     showgrid="false"
     inkscape:current-layer="layer1"
     inkscape:document-units="px"
     inkscape:cy="100.54565"
     inkscape:cx="39.177337"
     inkscape:zoom="1.979899"
     inkscape:pageshadow="2"
     inkscape:pageopacity="0"
     borderopacity="1.0"
     bordercolor="#666666"
     pagecolor="#ffe2ff"
     id="base" />
  <defs
     id="defs4">
    <linearGradient
       inkscape:collect="always"
       id="linearGradient13862">
      <stop
         style="stop-color:#000000;stop-opacity:1;"
         offset="0"
         id="stop13864" />
      <stop
         style="stop-color:#000000;stop-opacity:0;"
         offset="1"
         id="stop13866" />
    </linearGradient>
    <linearGradient
       inkscape:collect="always"
       xlink:href="#linearGradient13862"
       id="linearGradient13868"
       x1="79.296974"
       y1="75.327385"
       x2="163.6447"
       y2="159.67511"
       gradientUnits="userSpaceOnUse" />
    <clipPath
       clipPathUnits="userSpaceOnUse"
       id="clipPath13873">
      <rect
         style="opacity:1;fill:#bdbdbd;fill-opacity:1;fill-rule:nonzero;stroke:none;stroke-width:2;stroke-miterlimit:4;stroke-dasharray:none;stroke-opacity:1"
         id="rect13875"
         width="184"
         height="184"
         x="4"
         y="4.0000224"
         rx="8"
         ry="8" />
    </clipPath>
    <clipPath
       clipPathUnits="userSpaceOnUse"
       id="clipPath13877">
      <rect
         style="opacity:1;fill:#bdbdbd;fill-opacity:1;fill-rule:nonzero;stroke:none;stroke-width:2;stroke-miterlimit:4;stroke-dasharray:none;stroke-opacity:1"
         id="rect13879"
         width="184"
         height="184"
         x="4"
         y="4.0000224"
         rx="8"
         ry="8" />
    </clipPath>
    <clipPath
       clipPathUnits="userSpaceOnUse"
       id="clipPath13881">
      <rect
         style="opacity:1;fill:#bdbdbd;fill-opacity:1;fill-rule:nonzero;stroke:none;stroke-width:2;stroke-miterlimit:4;stroke-dasharray:none;stroke-opacity:1"
         id="rect13883"
         width="184"
         height="184"
         x="4"
         y="4.0000224"
         rx="8"
         ry="8" />
    </clipPath>
    <clipPath
       clipPathUnits="userSpaceOnUse"
       id="clipPath13885">
      <rect
         style="opacity:1;fill:#bdbdbd;fill-opacity:1;fill-rule:nonzero;stroke:none;stroke-width:2;stroke-miterlimit:4;stroke-dasharray:none;stroke-opacity:1"
         id="rect13887"
         width="184"
         height="184"
         x="4"
         y="4.0000224"
         rx="8"
         ry="8" />
    </clipPath>
    <clipPath
       clipPathUnits="userSpaceOnUse"
       id="clipPath13889">
      <rect
         style="opacity:1;fill:#bdbdbd;fill-opacity:1;fill-rule:nonzero;stroke:none;stroke-width:2;stroke-miterlimit:4;stroke-dasharray:none;stroke-opacity:1"
         id="rect13891"
         width="184"
         height="184"
         x="4"
         y="4.0000224"
         rx="8"
         ry="8" />
    </clipPath>
  </defs>
  <metadata
     id="metadata7">
    <rdf:RDF>
      <cc:Work
         rdf:about="">
        <dc:format>image/svg+xml</dc:format>
        <dc:type
           rdf:resource="http://purl.org/dc/dcmitype/StillImage" />
        <dc:title />
      </cc:Work>
    </rdf:RDF>
  </metadata>
  <g
     transform="translate(0,-860.36216)"
     id="layer1"
     inkscape:groupmode="layer"
     inkscape:label="Background">
    <rect
       ry="8"
       rx="8"
       y="864.36218"
       x="4"
       height="184"
       width="184"
       id="rect3336"
       style="opacity:1;fill:#607d8b;fill-opacity:1;fill-rule:nonzero;stroke:none;stroke-width:2;stroke-miterlimit:4;stroke-dasharray:none;stroke-opacity:1" />
  </g>
  <g
     inkscape:label="Icon"
     id="layer2"
     inkscape:groupmode="layer">
    <path
       style="fill:url(#linearGradient13868);fill-opacity:1;opacity:0.15"
       d="M 96.835938 30.167969 L 36.667969 61.001953 L 36.667969 73.335938 L 36.673828 73.335938 L 36.673828 73.339844 L 36.681641 73.339844 L 36.681641 73.347656 L 36.693359 73.347656 L 36.693359 73.359375 L 36.708984 73.359375 L 36.708984 73.375 L 36.726562 73.375 L 36.726562 73.394531 L 36.748047 73.394531 L 36.748047 73.416016 L 36.773438 73.416016 L 36.773438 73.441406 L 36.802734 73.441406 L 36.802734 73.46875 L 36.833984 73.46875 L 36.833984 73.501953 L 36.869141 73.501953 L 36.869141 73.537109 L 36.908203 73.537109 L 36.908203 73.574219 L 36.951172 73.574219 L 36.951172 73.617188 L 36.996094 73.617188 L 36.996094 73.662109 L 37.044922 73.662109 L 37.044922 73.710938 L 37.095703 73.710938 L 37.095703 73.763672 L 37.152344 73.763672 L 37.152344 73.818359 L 37.210938 73.818359 L 37.210938 73.876953 L 37.271484 73.876953 L 37.271484 73.939453 L 37.337891 73.939453 L 37.337891 74.003906 L 37.40625 74.003906 L 37.40625 74.074219 L 37.478516 74.074219 L 37.478516 74.144531 L 37.554688 74.144531 L 37.554688 74.220703 L 37.632812 74.220703 L 37.632812 74.298828 L 37.714844 74.298828 L 37.714844 74.382812 L 37.800781 74.382812 L 37.800781 74.466797 L 37.890625 74.466797 L 37.890625 74.556641 L 37.982422 74.556641 L 37.982422 74.648438 L 38.078125 74.648438 L 38.078125 74.744141 L 38.175781 74.744141 L 38.175781 74.84375 L 38.279297 74.84375 L 38.279297 74.945312 L 38.384766 74.945312 L 38.384766 75.050781 L 38.494141 75.050781 L 38.494141 75.160156 L 38.605469 75.160156 L 38.605469 75.273438 L 38.722656 75.273438 L 38.722656 75.388672 L 38.841797 75.388672 L 38.841797 75.507812 L 38.962891 75.507812 L 38.962891 75.630859 L 39.089844 75.630859 L 39.089844 75.755859 L 39.21875 75.755859 L 39.21875 75.884766 L 39.351562 75.884766 L 39.351562 76.017578 L 39.486328 76.017578 L 39.486328 76.154297 L 39.626953 76.154297 L 39.626953 76.292969 L 39.769531 76.292969 L 39.769531 76.435547 L 39.914062 76.435547 L 39.914062 76.582031 L 40.064453 76.582031 L 40.064453 76.730469 L 40.216797 76.730469 L 40.216797 76.882812 L 40.373047 76.882812 L 40.373047 77.039062 L 40.533203 77.039062 L 40.533203 77.199219 L 40.695312 77.199219 L 40.695312 77.361328 L 40.861328 77.361328 L 40.861328 77.527344 L 41.03125 77.527344 L 41.03125 77.697266 L 41.203125 77.697266 L 41.203125 77.871094 L 41.378906 77.871094 L 41.378906 78.046875 L 41.558594 78.046875 L 41.558594 78.226562 L 41.742188 78.226562 L 41.742188 78.408203 L 41.927734 78.408203 L 41.927734 78.595703 L 42.117188 78.595703 L 42.117188 78.785156 L 42.310547 78.785156 L 42.310547 78.978516 L 42.507812 78.978516 L 42.507812 79.173828 L 42.707031 79.173828 L 42.707031 79.373047 L 42.910156 79.373047 L 42.910156 79.576172 L 43.117188 79.576172 L 43.117188 79.783203 L 43.326172 79.783203 L 43.326172 79.992188 L 43.539062 79.992188 L 43.539062 80.205078 L 43.755859 80.205078 L 43.755859 80.421875 L 43.974609 80.421875 L 43.974609 80.642578 L 44.199219 80.642578 L 44.199219 80.865234 L 44.425781 80.865234 L 44.425781 81.091797 L 44.654297 81.091797 L 44.654297 81.322266 L 44.888672 81.322266 L 44.888672 81.554688 L 45.125 81.554688 L 45.125 81.791016 L 45.365234 81.791016 L 45.365234 82.03125 L 45.607422 82.03125 L 45.607422 82.275391 L 45.853516 82.275391 L 45.853516 82.521484 L 46.103516 82.521484 L 46.103516 82.771484 L 46.357422 82.771484 L 46.357422 83.025391 L 46.615234 83.025391 L 46.615234 83.28125 L 46.875 83.28125 L 46.875 83.541016 L 47.138672 83.541016 L 47.138672 83.804688 L 47.404297 83.804688 L 47.404297 84.072266 L 47.675781 84.072266 L 47.675781 84.341797 L 47.949219 84.341797 L 47.949219 84.615234 L 48.224609 84.615234 L 48.224609 84.892578 L 48.505859 84.892578 L 48.505859 85.171875 L 48.789062 85.171875 L 48.789062 85.455078 L 49.076172 85.455078 L 49.076172 85.742188 L 49.335938 85.742188 L 49.335938 128.83594 L 49.339844 128.83594 L 49.339844 128.83984 L 49.347656 128.83984 L 49.347656 128.84766 L 49.359375 128.84766 L 49.359375 128.85938 L 49.375 128.85938 L 49.375 128.875 L 49.394531 128.875 L 49.394531 128.89453 L 49.416016 128.89453 L 49.416016 128.91602 L 49.441406 128.91602 L 49.441406 128.94141 L 49.46875 128.94141 L 49.46875 128.96875 L 49.501953 128.96875 L 49.501953 129.00195 L 49.537109 129.00195 L 49.537109 129.03711 L 49.574219 129.03711 L 49.574219 129.07422 L 49.617188 129.07422 L 49.617188 129.11719 L 49.662109 129.11719 L 49.662109 129.16211 L 49.710938 129.16211 L 49.710938 129.21094 L 49.763672 129.21094 L 49.763672 129.26367 L 49.818359 129.26367 L 49.818359 129.31836 L 49.876953 129.31836 L 49.876953 129.37695 L 49.939453 129.37695 L 49.939453 129.43945 L 50.003906 129.43945 L 50.003906 129.50391 L 50.074219 129.50391 L 50.074219 129.57422 L 50.144531 129.57422 L 50.144531 129.64453 L 50.220703 129.64453 L 50.220703 129.7207 L 50.298828 129.7207 L 50.298828 129.79883 L 50.382812 129.79883 L 50.382812 129.88281 L 50.466797 129.88281 L 50.466797 129.9668 L 50.556641 129.9668 L 50.556641 130.05664 L 50.648438 130.05664 L 50.648438 130.14844 L 50.744141 130.14844 L 50.744141 130.24414 L 50.84375 130.24414 L 50.84375 130.34375 L 50.945312 130.34375 L 50.945312 130.44531 L 51.050781 130.44531 L 51.050781 130.55078 L 51.160156 130.55078 L 51.160156 130.66016 L 51.273438 130.66016 L 51.273438 130.77344 L 51.388672 130.77344 L 51.388672 130.88867 L 51.507812 130.88867 L 51.507812 131.00781 L 51.630859 131.00781 L 51.630859 131.13086 L 51.755859 131.13086 L 51.755859 131.25586 L 51.884766 131.25586 L 51.884766 131.38477 L 52.017578 131.38477 L 52.017578 131.51758 L 52.154297 131.51758 L 52.154297 131.6543 L 52.292969 131.6543 L 52.292969 131.79297 L 52.435547 131.79297 L 52.435547 131.93555 L 52.582031 131.93555 L 52.582031 132.08203 L 52.730469 132.08203 L 52.730469 132.23047 L 52.882812 132.23047 L 52.882812 132.38281 L 53.039062 132.38281 L 53.039062 132.53906 L 53.199219 132.53906 L 53.199219 132.69922 L 53.361328 132.69922 L 53.361328 132.86133 L 53.527344 132.86133 L 53.527344 133.02734 L 53.697266 133.02734 L 53.697266 133.19727 L 53.871094 133.19727 L 53.871094 133.37109 L 54.046875 133.37109 L 54.046875 133.54688 L 54.226562 133.54688 L 54.226562 133.72656 L 54.408203 133.72656 L 54.408203 133.9082 L 54.595703 133.9082 L 54.595703 134.0957 L 54.785156 134.0957 L 54.785156 134.28516 L 54.978516 134.28516 L 54.978516 134.47852 L 55.173828 134.47852 L 55.173828 134.67383 L 55.373047 134.67383 L 55.373047 134.87305 L 55.576172 134.87305 L 55.576172 135.07617 L 55.783203 135.07617 L 55.783203 135.2832 L 55.992188 135.2832 L 55.992188 135.49219 L 56.205078 135.49219 L 56.205078 135.70508 L 56.421875 135.70508 L 56.421875 135.92188 L 56.642578 135.92188 L 56.642578 136.14258 L 56.865234 136.14258 L 56.865234 136.36523 L 57.091797 136.36523 L 57.091797 136.5918 L 57.322266 136.5918 L 57.322266 136.82227 L 57.554688 136.82227 L 57.554688 137.05469 L 57.791016 137.05469 L 57.791016 137.29102 L 58.03125 137.29102 L 58.03125 137.53125 L 58.275391 137.53125 L 58.275391 137.77539 L 58.521484 137.77539 L 58.521484 138.02148 L 58.771484 138.02148 L 58.771484 138.27148 L 59.025391 138.27148 L 59.025391 138.52539 L 59.28125 138.52539 L 59.28125 138.78125 L 59.541016 138.78125 L 59.541016 139.04102 L 59.804688 139.04102 L 59.804688 139.30469 L 60.072266 139.30469 L 60.072266 139.57227 L 60.341797 139.57227 L 60.341797 139.8418 L 60.615234 139.8418 L 60.615234 140.11523 L 60.892578 140.11523 L 60.892578 140.39258 L 61.171875 140.39258 L 61.171875 140.67188 L 61.455078 140.67188 L 61.455078 140.95508 L 61.742188 140.95508 L 61.742188 141.16797 L 36.667969 141.16797 L 36.667969 159.66797 L 36.673828 159.66797 L 36.673828 159.67383 L 36.681641 159.67383 L 36.681641 159.68164 L 36.693359 159.68164 L 36.693359 159.69336 L 36.708984 159.69336 L 36.708984 159.70898 L 36.726562 159.70898 L 36.726562 159.72656 L 36.748047 159.72656 L 36.748047 159.74805 L 36.773438 159.74805 L 36.773438 159.77344 L 36.802734 159.77344 L 36.802734 159.80273 L 36.833984 159.80273 L 36.833984 159.83398 L 36.869141 159.83398 L 36.869141 159.86914 L 36.908203 159.86914 L 36.908203 159.9082 L 36.951172 159.9082 L 36.951172 159.95117 L 36.996094 159.95117 L 36.996094 159.99609 L 37.044922 159.99609 L 37.044922 160.04492 L 37.095703 160.04492 L 37.095703 160.0957 L 37.152344 160.0957 L 37.152344 160.15234 L 37.210938 160.15234 L 37.210938 160.21094 L 37.271484 160.21094 L 37.271484 160.27148 L 37.337891 160.27148 L 37.337891 160.33789 L 37.40625 160.33789 L 37.40625 160.40625 L 37.478516 160.40625 L 37.478516 160.47852 L 37.554688 160.47852 L 37.554688 160.55469 L 37.632812 160.55469 L 37.632812 160.63281 L 37.714844 160.63281 L 37.714844 160.71484 L 37.800781 160.71484 L 37.800781 160.80078 L 37.890625 160.80078 L 37.890625 160.89062 L 37.982422 160.89062 L 37.982422 160.98242 L 38.078125 160.98242 L 38.078125 161.07812 L 38.175781 161.07812 L 38.175781 161.17578 L 38.279297 161.17578 L 38.279297 161.2793 L 38.384766 161.2793 L 38.384766 161.38477 L 38.494141 161.38477 L 38.494141 161.49414 L 38.605469 161.49414 L 38.605469 161.60547 L 38.722656 161.60547 L 38.722656 161.72266 L 38.841797 161.72266 L 38.841797 161.8418 L 38.962891 161.8418 L 38.962891 161.96289 L 39.089844 161.96289 L 39.089844 162.08984 L 39.21875 162.08984 L 39.21875 162.21875 L 39.351562 162.21875 L 39.351562 162.35156 L 39.486328 162.35156 L 39.486328 162.48633 L 39.626953 162.48633 L 39.626953 162.62695 L 39.769531 162.62695 L 39.769531 162.76953 L 39.914062 162.76953 L 39.914062 162.91406 L 40.064453 162.91406 L 40.064453 163.06445 L 40.216797 163.06445 L 40.216797 163.2168 L 40.373047 163.2168 L 40.373047 163.37305 L 40.533203 163.37305 L 40.533203 163.5332 L 40.695312 163.5332 L 40.695312 163.69531 L 40.861328 163.69531 L 40.861328 163.86133 L 41.03125 163.86133 L 41.03125 164.03125 L 41.203125 164.03125 L 41.203125 164.20312 L 41.378906 164.20312 L 41.378906 164.37891 L 41.558594 164.37891 L 41.558594 164.55859 L 41.742188 164.55859 L 41.742188 164.74219 L 41.927734 164.74219 L 41.927734 164.92773 L 42.117188 164.92773 L 42.117188 165.11719 L 42.310547 165.11719 L 42.310547 165.31055 L 42.507812 165.31055 L 42.507812 165.50781 L 42.707031 165.50781 L 42.707031 165.70703 L 42.910156 165.70703 L 42.910156 165.91016 L 43.117188 165.91016 L 43.117188 166.11719 L 43.326172 166.11719 L 43.326172 166.32617 L 43.539062 166.32617 L 43.539062 166.53906 L 43.755859 166.53906 L 43.755859 166.75586 L 43.974609 166.75586 L 43.974609 166.97461 L 44.199219 166.97461 L 44.199219 167.19922 L 44.425781 167.19922 L 44.425781 167.42578 L 44.654297 167.42578 L 44.654297 167.6543 L 44.888672 167.6543 L 44.888672 167.88867 L 45.125 167.88867 L 45.125 168.125 L 45.365234 168.125 L 45.365234 168.36523 L 45.607422 168.36523 L 45.607422 168.60742 L 45.853516 168.60742 L 45.853516 168.85352 L 46.103516 168.85352 L 46.103516 169.10352 L 46.357422 169.10352 L 46.357422 169.35742 L 46.615234 169.35742 L 46.615234 169.61523 L 46.875 169.61523 L 46.875 169.875 L 47.138672 169.875 L 47.138672 170.13867 L 47.404297 170.13867 L 47.404297 170.4043 L 47.675781 170.4043 L 47.675781 170.67578 L 47.949219 170.67578 L 47.949219 170.94922 L 48.224609 170.94922 L 48.224609 171.22461 L 48.505859 171.22461 L 48.505859 171.50586 L 48.789062 171.50586 L 48.789062 171.78906 L 49.076172 171.78906 L 49.076172 172.07617 L 49.365234 172.07617 L 49.365234 172.36523 L 49.660156 172.36523 L 49.660156 172.66016 L 49.957031 172.66016 L 49.957031 172.95703 L 50.257812 172.95703 L 50.257812 173.25781 L 50.560547 173.25781 L 50.560547 173.56055 L 50.867188 173.56055 L 50.867188 173.86719 L 51.177734 173.86719 L 51.177734 174.17773 L 51.492188 174.17773 L 51.492188 174.49219 L 51.808594 174.49219 L 51.808594 174.80859 L 52.128906 174.80859 L 52.128906 175.12891 L 52.453125 175.12891 L 52.453125 175.45312 L 52.78125 175.45312 L 52.78125 175.78125 L 53.111328 175.78125 L 53.111328 176.11133 L 53.445312 176.11133 L 53.445312 176.44531 L 53.783203 176.44531 L 53.783203 176.7832 L 54.123047 176.7832 L 54.123047 177.12305 L 54.466797 177.12305 L 54.466797 177.4668 L 54.814453 177.4668 L 54.814453 177.81445 L 55.164062 177.81445 L 55.164062 178.16406 L 55.519531 178.16406 L 55.519531 178.51953 L 55.876953 178.51953 L 55.876953 178.87695 L 56.236328 178.87695 L 56.236328 179.23633 L 56.601562 179.23633 L 56.601562 179.60156 L 56.96875 179.60156 L 56.96875 179.96875 L 57.339844 179.96875 L 57.339844 180.33984 L 57.712891 180.33984 L 57.712891 180.71289 L 58.091797 180.71289 L 58.091797 181.0918 L 58.472656 181.0918 L 58.472656 181.47266 L 58.855469 181.47266 L 58.855469 181.85547 L 59.244141 181.85547 L 59.244141 182.24414 L 59.634766 182.24414 L 59.634766 182.63477 L 60.029297 182.63477 L 60.029297 183.0293 L 60.425781 183.0293 L 60.425781 183.42578 L 60.828125 183.42578 L 60.828125 183.82812 L 61.232422 183.82812 L 61.232422 184.23242 L 61.638672 184.23242 L 61.638672 184.63867 L 62.050781 184.63867 L 62.050781 185.05078 L 62.464844 185.05078 L 62.464844 185.46484 L 62.882812 185.46484 L 62.882812 185.88281 L 63.304688 185.88281 L 63.304688 186.30469 L 63.728516 186.30469 L 63.728516 186.72852 L 64.15625 186.72852 L 64.15625 187.15625 L 64.587891 187.15625 L 64.587891 187.58789 L 65.021484 187.58789 L 65.021484 188.02148 L 65.460938 188.02148 L 65.460938 188.46094 L 65.900391 188.46094 L 65.900391 188.90039 L 66.345703 188.90039 L 66.345703 189.3457 L 66.792969 189.3457 L 66.792969 189.79297 L 67.246094 189.79297 L 67.246094 190.24609 L 67.699219 190.24609 L 67.699219 190.69922 L 68.158203 190.69922 L 68.158203 191.1582 L 68.619141 191.1582 L 68.619141 191.61914 L 69.083984 191.61914 L 69.083984 192.08398 L 69.552734 192.08398 L 69.552734 192.55273 L 70.023438 192.55273 L 70.023438 193.02344 L 70.498047 193.02344 L 70.498047 193.49805 L 70.976562 193.49805 L 70.976562 193.97656 L 71.458984 193.97656 L 71.458984 194.45898 L 71.943359 194.45898 L 71.943359 194.94336 L 72.431641 194.94336 L 72.431641 195.43164 L 72.923828 195.43164 L 72.923828 195.92383 L 73.417969 195.92383 L 73.417969 196.41797 L 73.916016 196.41797 L 73.916016 196.91602 L 74.417969 196.91602 L 74.417969 197.41797 L 74.923828 197.41797 L 74.923828 197.92383 L 75.431641 197.92383 L 75.431641 198.43164 L 75.943359 198.43164 L 75.943359 198.94336 L 76.458984 198.94336 L 76.458984 199.45898 L 76.976562 199.45898 L 76.976562 199.97656 L 77.498047 199.97656 L 77.498047 200.49805 L 78.023438 200.49805 L 78.023438 201.02344 L 78.552734 201.02344 L 78.552734 201.55273 L 79.083984 201.55273 L 79.083984 202.08398 L 79.619141 202.08398 L 79.619141 202.61914 L 80.158203 202.61914 L 80.158203 203.1582 L 80.699219 203.1582 L 80.699219 203.69922 L 81.244141 203.69922 L 81.244141 204.24414 L 81.792969 204.24414 L 81.792969 204.79297 L 82.345703 204.79297 L 82.345703 205.3457 L 82.900391 205.3457 L 82.900391 205.90039 L 83.458984 205.90039 L 83.458984 206.45898 L 84.021484 206.45898 L 84.021484 207.02148 L 84.587891 207.02148 L 84.587891 207.58789 L 85.15625 207.58789 L 85.15625 208.15625 L 85.728516 208.15625 L 85.728516 208.72852 L 86.302734 208.72852 L 86.302734 209.30273 L 86.882812 209.30273 L 86.882812 209.88281 L 87.464844 209.88281 L 87.464844 210.46484 L 88.050781 210.46484 L 88.050781 211.05078 L 88.638672 211.05078 L 88.638672 211.63867 L 89.232422 211.63867 L 89.232422 212.23242 L 89.826172 212.23242 L 89.826172 212.82617 L 90.425781 212.82617 L 90.425781 213.42578 L 91.029297 213.42578 L 91.029297 214.0293 L 91.634766 214.0293 L 91.634766 214.63477 L 92.244141 214.63477 L 92.244141 215.24414 L 92.855469 215.24414 L 92.855469 215.85547 L 93.470703 215.85547 L 93.470703 216.4707 L 94.089844 216.4707 L 94.089844 217.08984 L 94.712891 217.08984 L 94.712891 217.71289 L 95.337891 217.71289 L 95.337891 218.33789 L 95.96875 218.33789 L 95.96875 218.96875 L 96.599609 218.96875 L 96.599609 219.59961 L 97.236328 219.59961 L 97.236328 220.23633 L 97.875 220.23633 L 97.875 220.875 L 98.517578 220.875 L 98.517578 221.51758 L 99.164062 221.51758 L 99.164062 222.16406 L 99.814453 222.16406 L 99.814453 222.81445 L 100.4668 222.81445 L 100.4668 223.4668 L 101.12305 223.4668 L 101.12305 224.12305 L 101.78125 224.12305 L 101.78125 224.78125 L 102.44531 224.78125 L 102.44531 225.44531 L 103.11133 225.44531 L 103.11133 226.11133 L 103.7793 226.11133 L 103.7793 226.7793 L 104.45312 226.7793 L 104.45312 227.45312 L 105.12891 227.45312 L 105.12891 228.12891 L 105.80859 228.12891 L 105.80859 228.80859 L 106.49219 228.80859 L 106.49219 229.49219 L 107.17773 229.49219 L 107.17773 230.17773 L 107.86719 230.17773 L 107.86719 230.86719 L 108.56055 230.86719 L 108.56055 231.56055 L 109.25586 231.56055 L 109.25586 232.25586 L 109.95703 232.25586 L 109.95703 232.95703 L 110.6582 232.95703 L 110.6582 233.6582 L 111.36523 233.6582 L 111.36523 234.36523 L 112.07617 234.36523 L 112.07617 235.07617 L 112.78906 235.07617 L 112.78906 235.78906 L 113.50391 235.78906 L 113.50391 236.50391 L 114.22461 236.50391 L 114.22461 237.22461 L 114.94727 237.22461 L 114.94727 237.94727 L 115.67383 237.94727 L 115.67383 238.67383 L 116.4043 238.67383 L 116.4043 239.4043 L 117.13672 239.4043 L 117.13672 240.13672 L 117.87305 240.13672 L 117.87305 240.87305 L 118.61328 240.87305 L 118.61328 241.61328 L 119.35742 241.61328 L 119.35742 242.35742 L 120.10352 242.35742 L 120.10352 243.10352 L 120.85352 243.10352 L 120.85352 243.85352 L 121.60742 243.85352 L 121.60742 244.60742 L 122.36328 244.60742 L 122.36328 245.36328 L 123.12305 245.36328 L 123.12305 246.12305 L 123.88672 246.12305 L 123.88672 246.88672 L 124.6543 246.88672 L 124.6543 247.6543 L 125.42383 247.6543 L 125.42383 248.42383 L 126.19727 248.42383 L 126.19727 249.19727 L 126.97461 249.19727 L 126.97461 249.97461 L 127.75391 249.97461 L 127.75391 250.75391 L 128.53906 250.75391 L 128.53906 251.53906 L 129.32422 251.53906 L 129.32422 252.32422 L 130.11523 252.32422 L 130.11523 253.11523 L 130.9082 253.11523 L 130.9082 253.9082 L 131.70508 253.9082 L 131.70508 254.70508 L 132.50586 254.70508 L 132.50586 255.50586 L 133.31055 255.50586 L 133.31055 256.31055 L 134.11719 256.31055 L 134.11719 257.11719 L 134.92773 257.11719 L 134.92773 257.92773 L 135.74023 257.92773 L 135.74023 258.74023 L 136.55859 258.74023 L 136.55859 259.55859 L 137.37891 259.55859 L 137.37891 260.37891 L 138.20312 260.37891 L 138.20312 261.20312 L 139.0293 261.20312 L 139.0293 262.0293 L 139.85938 262.0293 L 139.85938 262.85938 L 140.69336 262.85938 L 140.69336 263.69336 L 141.53125 263.69336 L 141.53125 264.53125 L 142.37109 264.53125 L 142.37109 265.37109 L 143.21484 265.37109 L 143.21484 266.21484 L 144.0625 266.21484 L 144.0625 267.0625 L 144.91406 267.0625 L 144.91406 267.91406 L 145.76758 267.91406 L 145.76758 268.76758 L 146.625 268.76758 L 146.625 269.625 L 147.48633 269.625 L 147.48633 270.48633 L 148.34961 270.48633 L 148.34961 271.34961 L 149.2168 271.34961 L 149.2168 272.2168 L 150.08789 272.2168 L 150.08789 273.08789 L 150.96289 273.08789 L 150.96289 273.96289 L 151.83984 273.96289 L 151.83984 274.83984 L 152.7207 274.83984 L 152.7207 275.7207 L 153.60547 275.7207 L 153.60547 276.60547 L 154.49219 276.60547 L 154.49219 277.49219 L 155.38281 277.49219 L 155.38281 278.38281 L 156.27734 278.38281 L 156.27734 279.27734 L 157.17578 279.27734 L 157.17578 280.17578 L 158.07617 280.17578 L 158.07617 281.07617 L 158.98047 281.07617 L 158.98047 281.98047 L 159.88867 281.98047 L 159.88867 282.88867 L 160.79883 282.88867 L 160.79883 283.79883 L 161.71484 283.79883 L 161.71484 284.71484 L 162.63086 284.71484 L 162.63086 285.63086 L 163.55273 285.63086 L 163.55273 286.55273 L 164.47656 286.55273 L 164.47656 287.47656 L 165.4043 287.47656 L 165.4043 288.4043 L 166.33594 288.4043 L 166.33594 289.33594 L 167.27148 289.33594 L 167.27148 290.27148 L 168.20898 290.27148 L 168.20898 291.20898 L 169.15039 291.20898 L 169.15039 292.15039 L 170.09375 292.15039 L 170.09375 293.09375 L 171.04297 293.09375 L 171.04297 294.04297 L 171.99414 294.04297 L 171.99414 294.99414 L 172.94922 294.99414 L 172.94922 295.94922 L 173.90625 295.94922 L 173.90625 296.90625 L 174.86719 296.90625 L 174.86719 297.86719 L 175.83203 297.86719 L 175.83203 298.83203 L 176.80078 298.83203 L 176.80078 299.80078 L 177.77148 299.80078 L 177.77148 300.77148 L 178.74805 300.77148 L 178.74805 301.74805 L 179.72461 301.74805 L 179.72461 302.72461 L 180.70703 302.72461 L 180.70703 303.70703 L 181.69141 303.70703 L 181.69141 304.69141 L 182.67969 304.69141 L 182.67969 305.67969 L 183.67188 305.67969 L 183.67188 306.67188 L 304.00586 306.67188 L 304.00586 288.17188 L 303.01367 288.17188 L 303.01367 287.17969 L 302.02539 287.17969 L 302.02539 286.19141 L 301.04102 286.19141 L 301.04102 285.20703 L 300.05859 285.20703 L 300.05859 284.22461 L 299.08008 284.22461 L 299.08008 283.24805 L 298.10547 283.24805 L 298.10547 282.27148 L 297.13477 282.27148 L 297.13477 281.30078 L 296.16602 281.30078 L 296.16602 280.33203 L 295.20117 280.33203 L 295.20117 279.36719 L 294.24023 279.36719 L 294.24023 278.40625 L 293.28125 278.40625 L 293.28125 277.44922 L 292.32812 277.44922 L 292.32812 276.49414 L 291.37695 276.49414 L 291.37695 275.54297 L 291.33789 275.54297 L 291.33789 232.67188 L 290.34766 232.67188 L 290.34766 231.67969 L 289.35938 231.67969 L 289.35938 230.69141 L 288.37305 230.69141 L 288.37305 229.70703 L 287.39258 229.70703 L 287.39258 228.72461 L 286.41406 228.72461 L 286.41406 227.74805 L 285.43945 227.74805 L 285.43945 226.77148 L 284.4668 226.77148 L 284.4668 225.80078 L 283.5 225.80078 L 283.5 224.83203 L 282.53516 224.83203 L 282.53516 223.86719 L 281.57422 223.86719 L 281.57422 222.90625 L 280.61523 222.90625 L 280.61523 221.94922 L 279.66016 221.94922 L 279.66016 220.99414 L 278.70898 220.99414 L 278.70898 220.33789 L 304.00586 220.33789 L 304.00586 208.00586 L 303.01367 207.49805 L 303.01367 207.01367 L 302.02539 206.50781 L 302.02539 206.02539 L 301.04102 205.52148 L 301.04102 205.04102 L 300.05859 204.53711 L 300.05859 204.05859 L 299.08008 203.55664 L 299.08008 203.08008 L 298.10547 202.58008 L 298.10547 202.10547 L 297.13477 201.60742 L 297.13477 201.13477 L 296.16602 200.63867 L 296.16602 200.16602 L 295.20117 199.67188 L 295.20117 199.20117 L 294.24023 198.70898 L 294.24023 198.24023 L 293.28125 197.74805 L 293.28125 197.28125 L 292.32812 196.79297 L 292.32812 196.32812 L 291.37695 195.83984 L 291.37695 195.37695 L 290.42773 194.89062 L 290.42773 194.42773 L 289.48438 193.94336 L 289.48438 193.48438 L 288.54297 193.00195 L 288.54297 192.54297 L 287.60352 192.0625 L 287.60352 191.60352 L 286.66992 191.125 L 286.66992 190.66992 L 285.73828 190.19336 L 285.73828 189.73828 L 284.81055 189.26367 L 284.81055 188.81055 L 283.88672 188.33789 L 283.88672 187.88672 L 282.96484 187.41406 L 282.96484 186.96484 L 282.04688 186.49414 L 282.04688 186.04688 L 281.13281 185.57812 L 281.13281 185.13281 L 280.22266 184.66602 L 280.22266 184.22266 L 279.31445 183.75781 L 279.31445 183.31445 L 278.41016 182.85156 L 278.41016 182.41016 L 277.50781 181.94727 L 277.50781 181.50781 L 276.61133 181.04883 L 276.61133 180.61133 L 275.7168 180.15234 L 275.7168 179.7168 L 274.82617 179.25977 L 274.82617 178.82617 L 273.9375 178.37109 L 273.9375 177.9375 L 273.05469 177.48438 L 273.05469 177.05469 L 272.17383 176.60352 L 272.17383 176.17383 L 271.29492 175.72266 L 271.29492 175.29492 L 270.42188 174.84766 L 270.42188 174.42188 L 269.55078 173.97461 L 269.55078 173.55078 L 268.68359 173.10547 L 268.68359 172.68359 L 267.81836 172.24023 L 267.81836 171.81836 L 266.95898 171.37891 L 266.95898 170.95898 L 266.10156 170.51953 L 266.10156 170.10156 L 265.24805 169.66406 L 265.24805 169.24805 L 264.39648 168.8125 L 264.39648 168.39648 L 263.54883 167.96289 L 263.54883 167.54883 L 262.70508 167.11719 L 262.70508 166.70508 L 261.86523 166.27539 L 261.86523 165.86523 L 261.02734 165.43555 L 261.02734 165.02734 L 260.19336 164.59961 L 260.19336 164.19336 L 259.36328 163.76758 L 259.36328 163.36328 L 258.53516 162.93945 L 258.53516 162.53516 L 257.71289 162.11328 L 257.71289 161.71289 L 256.89062 161.29102 L 256.89062 160.89062 L 256.07422 160.47266 L 256.07422 160.07422 L 255.25977 159.65625 L 255.25977 159.25977 L 254.45117 158.8457 L 254.45117 158.45117 L 253.64258 158.03711 L 253.64258 157.64258 L 252.83984 157.23047 L 252.83984 156.83984 L 252.03906 156.42969 L 252.03906 156.03906 L 251.24219 155.63086 L 251.24219 155.24219 L 250.44922 154.83594 L 250.44922 154.44922 L 249.6582 154.04297 L 249.6582 153.6582 L 248.87109 153.25391 L 248.87109 152.87109 L 248.08789 152.4707 L 248.08789 152.08789 L 247.30859 151.68945 L 247.30859 151.30859 L 246.53125 150.91016 L 246.53125 150.53125 L 245.75781 150.13477 L 245.75781 149.75781 L 244.98633 149.36328 L 244.98633 148.98633 L 244.2207 148.59375 L 244.2207 148.2207 L 243.45703 147.83008 L 243.45703 147.45703 L 242.69727 147.06836 L 242.69727 146.69727 L 241.93945 146.30859 L 241.93945 145.93945 L 241.1875 145.55469 L 241.1875 145.1875 L 240.4375 144.80273 L 240.4375 144.4375 L 239.68945 144.05469 L 239.68945 143.68945 L 238.94727 143.30859 L 238.94727 142.94727 L 238.20703 142.56836 L 238.20703 142.20703 L 237.4707 141.83008 L 237.4707 141.4707 L 236.73828 141.0957 L 236.73828 140.73828 L 236.00781 140.36328 L 236.00781 140.00781 L 235.28125 139.63477 L 235.28125 139.28125 L 234.55859 138.91016 L 234.55859 138.55859 L 233.83789 138.18945 L 233.83789 137.83789 L 233.12109 137.4707 L 233.12109 137.12109 L 232.4082 136.75586 L 232.4082 136.4082 L 231.69922 136.04492 L 231.69922 135.69922 L 230.99219 135.33594 L 230.99219 134.99219 L 230.28906 134.63281 L 230.28906 134.28906 L 229.58984 133.93164 L 229.58984 133.58984 L 228.89258 133.23242 L 228.89258 132.89258 L 228.20117 132.53906 L 228.20117 132.20117 L 227.51172 131.84766 L 227.51172 131.51172 L 226.82422 131.16016 L 226.82422 130.82422 L 226.14258 130.47461 L 226.14258 130.14258 L 225.46289 129.79492 L 225.46289 129.46289 L 224.78711 129.11719 L 224.78711 128.78711 L 224.11328 128.44141 L 224.11328 128.11328 L 223.44336 127.76953 L 223.44336 127.44336 L 222.77734 127.10156 L 222.77734 126.77734 L 222.11523 126.4375 L 222.11523 126.11523 L 221.45508 125.77734 L 221.45508 125.45508 L 220.79883 125.11914 L 220.79883 124.79883 L 220.14648 124.46484 L 220.14648 124.14648 L 219.49805 123.81445 L 219.49805 123.49805 L 218.85156 123.16602 L 218.85156 122.85156 L 218.20898 122.52148 L 218.20898 122.20898 L 217.57031 121.88086 L 217.57031 121.57031 L 216.93359 121.24414 L 216.93359 120.93359 L 216.30078 120.60938 L 216.30078 120.30078 L 215.67188 119.97852 L 215.67188 119.67188 L 215.04688 119.35156 L 215.04688 119.04688 L 214.42383 118.72852 L 214.42383 118.42383 L 213.80469 118.10742 L 213.80469 117.80469 L 213.18945 117.49023 L 213.18945 117.18945 L 212.57617 116.875 L 212.57617 116.57617 L 211.9668 116.26367 L 211.9668 115.9668 L 211.36133 115.65625 L 211.36133 115.36133 L 210.75977 115.05273 L 210.75977 114.75977 L 210.16016 114.45312 L 210.16016 114.16016 L 209.56445 113.85547 L 209.56445 113.56445 L 208.97266 113.26172 L 208.97266 112.97266 L 208.38281 112.66992 L 208.38281 112.38281 L 207.79883 112.08398 L 207.79883 111.79883 L 207.2168 111.5 L 207.2168 111.2168 L 206.63672 110.91992 L 206.63672 110.63672 L 206.06055 110.3418 L 206.06055 110.06055 L 205.49023 109.76758 L 205.49023 109.49023 L 204.91992 109.19727 L 204.91992 108.91992 L 204.35547 108.63086 L 204.35547 108.35547 L 203.79297 108.06641 L 203.79297 107.79297 L 203.23438 107.50586 L 203.23438 107.23438 L 202.67969 106.94922 L 202.67969 106.67969 L 202.12695 106.39648 L 202.12695 106.12695 L 201.57812 105.8457 L 201.57812 105.57812 L 201.0332 105.29883 L 201.0332 105.0332 L 200.49023 104.75586 L 200.49023 104.49023 L 199.95312 104.21484 L 199.95312 103.95312 L 199.41797 103.67969 L 199.41797 103.41797 L 198.88477 103.14453 L 198.88477 102.88477 L 198.35742 102.61523 L 198.35742 102.35742 L 197.83203 102.08789 L 197.83203 101.83203 L 197.31055 101.56445 L 197.31055 101.31055 L 196.79102 101.04492 L 196.79102 100.79102 L 196.27734 100.52734 L 196.27734 100.27734 L 195.76562 100.01562 L 195.76562 99.765625 L 195.25586 99.503906 L 195.25586 99.255859 L 194.75195 98.998047 L 194.75195 98.751953 L 194.25 98.494141 L 194.25 98.25 L 193.75195 97.994141 L 193.75195 97.751953 L 193.25586 97.498047 L 193.25586 97.255859 L 192.76562 97.003906 L 192.76562 96.765625 L 192.27734 96.515625 L 192.27734 96.277344 L 191.79102 96.027344 L 191.79102 95.791016 L 191.31055 95.544922 L 191.31055 95.310547 L 190.83203 95.064453 L 190.83203 94.832031 L 190.35742 94.587891 L 190.35742 94.357422 L 189.88477 94.115234 L 189.88477 93.884766 L 189.41797 93.646484 L 189.41797 93.417969 L 188.95312 93.179688 L 188.95312 92.953125 L 188.49219 92.716797 L 188.49219 92.492188 L 188.0332 92.257812 L 188.0332 92.033203 L 187.57812 91.800781 L 187.57812 91.578125 L 187.12695 91.347656 L 187.12695 91.126953 L 186.67969 90.898438 L 186.67969 90.679688 L 186.23438 90.451172 L 186.23438 90.234375 L 185.79297 90.007812 L 185.79297 89.792969 L 185.35547 89.568359 L 185.35547 89.355469 L 184.91992 89.132812 L 184.91992 88.919922 L 184.49023 88.699219 L 184.49023 88.490234 L 184.0625 88.271484 L 184.0625 88.0625 L 183.63672 87.84375 L 183.63672 87.636719 L 183.2168 87.421875 L 183.2168 87.216797 L 182.79883 87.001953 L 182.79883 86.798828 L 182.38477 86.585938 L 182.38477 86.384766 L 181.97266 86.173828 L 181.97266 85.972656 L 181.56445 85.763672 L 181.56445 85.564453 L 181.16016 85.357422 L 181.16016 85.160156 L 180.75977 84.955078 L 180.75977 84.759766 L 180.36133 84.554688 L 180.36133 84.361328 L 179.96875 84.160156 L 179.96875 83.96875 L 179.57617 83.767578 L 179.57617 83.576172 L 179.18945 83.378906 L 179.18945 83.189453 L 178.80469 82.992188 L 178.80469 82.804688 L 178.42383 82.609375 L 178.42383 82.423828 L 178.04688 82.230469 L 178.04688 82.046875 L 177.67188 81.855469 L 177.67188 81.671875 L 177.30273 81.482422 L 177.30273 81.302734 L 176.93359 81.113281 L 176.93359 80.933594 L 176.57031 80.748047 L 176.57031 80.570312 L 176.20898 80.384766 L 176.20898 80.208984 L 175.85156 80.025391 L 175.85156 79.851562 L 175.49805 79.669922 L 175.49805 79.498047 L 175.14648 79.318359 L 175.14648 79.146484 L 174.80078 78.96875 L 174.80078 78.800781 L 174.45703 78.625 L 174.45703 78.457031 L 174.11523 78.28125 L 174.11523 78.115234 L 173.7793 77.943359 L 173.7793 77.779297 L 173.44531 77.607422 L 173.44531 77.445312 L 173.11328 77.275391 L 173.11328 77.113281 L 172.78711 76.945312 L 172.78711 76.787109 L 172.46289 76.621094 L 172.46289 76.462891 L 172.14258 76.298828 L 172.14258 76.142578 L 171.82617 75.980469 L 171.82617 75.826172 L 171.51172 75.664062 L 171.51172 75.511719 L 171.20117 75.353516 L 171.20117 75.201172 L 170.89453 75.044922 L 170.89453 74.894531 L 170.58984 74.738281 L 170.58984 74.589844 L 170.29102 74.4375 L 170.29102 74.291016 L 169.99219 74.138672 L 169.99219 73.992188 L 169.69922 73.841797 L 169.69922 73.699219 L 169.41016 73.550781 L 169.41016 73.410156 L 169.12305 73.263672 L 169.12305 73.123047 L 168.83789 72.976562 L 168.83789 72.837891 L 168.55859 72.695312 L 168.55859 72.558594 L 168.28125 72.416016 L 168.28125 72.28125 L 168.00781 72.140625 L 168.00781 72.007812 L 167.73828 71.869141 L 167.73828 71.738281 L 167.4707 71.601562 L 167.4707 71.470703 L 167.20703 71.335938 L 167.20703 71.207031 L 166.94727 71.074219 L 166.94727 70.947266 L 166.69141 70.816406 L 166.69141 70.691406 L 166.4375 70.560547 L 166.4375 70.4375 L 166.1875 70.308594 L 166.1875 70.1875 L 165.94141 70.060547 L 165.94141 69.941406 L 165.69727 69.816406 L 165.69727 69.697266 L 165.45703 69.574219 L 165.45703 69.457031 L 165.2207 69.335938 L 165.2207 69.220703 L 164.98828 69.101562 L 164.98828 68.988281 L 164.75781 68.871094 L 164.75781 68.757812 L 164.53125 68.642578 L 164.53125 68.53125 L 164.30859 68.417969 L 164.30859 68.308594 L 164.08789 68.195312 L 164.08789 68.087891 L 163.87305 67.978516 L 163.87305 67.873047 L 163.66016 67.763672 L 163.66016 67.660156 L 163.44922 67.552734 L 163.44922 67.449219 L 163.24414 67.34375 L 163.24414 67.244141 L 163.04102 67.140625 L 163.04102 67.041016 L 162.83984 66.9375 L 162.83984 66.839844 L 162.64453 66.740234 L 162.64453 66.644531 L 162.45117 66.544922 L 162.45117 66.451172 L 162.26172 66.353516 L 162.26172 66.261719 L 162.07617 66.166016 L 162.07617 66.076172 L 161.89258 65.982422 L 161.89258 65.892578 L 161.71289 65.800781 L 161.71289 65.712891 L 161.53711 65.623047 L 161.53711 65.537109 L 161.36328 65.447266 L 161.36328 65.363281 L 161.19531 65.277344 L 161.19531 65.195312 L 161.0293 65.109375 L 161.0293 65.029297 L 160.86523 64.945312 L 160.86523 64.865234 L 160.70703 64.783203 L 160.70703 64.707031 L 160.55078 64.626953 L 160.55078 64.550781 L 160.39844 64.472656 L 160.39844 64.398438 L 160.24805 64.322266 L 160.24805 64.248047 L 160.10156 64.173828 L 160.10156 64.101562 L 159.95898 64.029297 L 159.95898 63.958984 L 159.82031 63.888672 L 159.82031 63.820312 L 159.68359 63.75 L 159.68359 63.683594 L 159.55273 63.617188 L 159.55273 63.552734 L 159.42188 63.486328 L 159.42188 63.421875 L 159.29688 63.357422 L 159.29688 63.296875 L 159.17383 63.234375 L 159.17383 63.173828 L 159.05469 63.113281 L 159.05469 63.054688 L 158.93945 62.996094 L 158.93945 62.939453 L 158.82812 62.882812 L 158.82812 62.828125 L 158.71875 62.771484 L 158.71875 62.71875 L 158.61328 62.664062 L 158.61328 62.613281 L 158.50977 62.560547 L 158.50977 62.509766 L 158.41016 62.458984 L 158.41016 62.410156 L 158.31445 62.361328 L 158.31445 62.314453 L 158.22266 62.267578 L 158.22266 62.222656 L 158.13477 62.177734 L 158.13477 62.134766 L 158.04883 62.089844 L 158.04883 62.048828 L 157.9668 62.005859 L 157.9668 61.966797 L 157.88672 61.925781 L 157.88672 61.886719 L 157.8125 61.849609 L 157.8125 61.8125 L 157.74023 61.775391 L 157.74023 61.740234 L 157.67188 61.705078 L 157.67188 61.671875 L 157.60547 61.638672 L 157.60547 61.605469 L 157.54297 61.574219 L 157.54297 61.542969 L 157.48438 61.513672 L 157.48438 61.484375 L 157.42969 61.457031 L 157.42969 61.429688 L 157.37695 61.402344 L 157.37695 61.376953 L 157.32812 61.351562 L 157.32812 61.328125 L 157.2832 61.304688 L 157.2832 61.283203 L 157.24219 61.261719 L 157.24219 61.242188 L 157.20312 61.222656 L 157.20312 61.203125 L 157.16797 61.185547 L 157.16797 61.167969 L 157.13672 61.152344 L 157.13672 61.136719 L 157.10742 61.121094 L 157.10742 61.107422 L 157.08203 61.09375 L 157.08203 61.082031 L 157.06055 61.070312 L 157.06055 61.060547 L 157.04102 61.050781 L 157.04102 61.041016 L 157.02734 61.033203 L 157.02734 61.027344 L 157.01562 61.021484 L 157.01562 61.015625 L 157.00586 61.009766 L 157.00586 61.005859 L 157.00195 61.003906 L 157.00195 61.001953 L 96.835938 30.167969 z "
       id="path12644"
       clip-path="url(#clipPath13889)" />
    <path
       id="path4236"
       d="m 24,24 152,0 0,148 -152,0 z"
       inkscape:connector-curvature="0"
       style="fill:none"
       clip-path="url(#clipPath13885)" />
    <path
       id="path4238"
       d="m 49.333333,85.666667 0,43.166663 19,0 0,-43.166663 -19,0 z m 38,0 0,43.166663 18.999997,0 0,-43.166663 -18.999997,0 z m -50.666666,74.000003 120.333333,0 0,-18.5 -120.333333,0 0,18.5 z m 88.666663,-74.000003 0,43.166663 19,0 0,-43.166663 -19,0 z m -28.499997,-55.5 L 36.666667,61 l 0,12.333334 120.333333,0 L 157,61 96.833333,30.166667 Z"
       inkscape:connector-curvature="0"
       style="fill:#ffffff"
       clip-path="url(#clipPath13881)" />
    <path
       style="fill:none"
       inkscape:connector-curvature="0"
       d="m 172,172 152,0 0,148 -152,0 z"
       id="path12623"
       clip-path="url(#clipPath13877)" />
    <path
       inkscape:connector-curvature="0"
       d="m 197.33333,233.66667 0,43.16666 19,0 0,-43.16666 -19,0 z m 38,0 0,43.16666 19,0 0,-43.16666 -19,0 z m -50.66666,74 120.33333,0 0,-18.5 -120.33333,0 0,18.5 z m 88.66666,-74 0,43.16666 19,0 0,-43.16666 -19,0 z m -28.5,-55.5 L 184.66667,209 l 0,12.33333 120.33333,0 L 305,209 244.83333,178.16667 Z"
       id="path12625"
       style="fill:#ffffff"
       clip-path="url(#clipPath13873)" />
  </g>
</svg>
